<?xml version="1.0" encoding="UTF-8" standalone="no"?>
<svg
   xmlns:dc="http://purl.org/dc/elements/1.1/"
   xmlns:cc="http://creativecommons.org/ns#"
   xmlns:rdf="http://www.w3.org/1999/02/22-rdf-syntax-ns#"
   xmlns:svg="http://www.w3.org/2000/svg"
   xmlns="http://www.w3.org/2000/svg"
   xmlns:sodipodi="http://sodipodi.sourceforge.net/DTD/sodipodi-0.dtd"
   xmlns:inkscape="http://www.inkscape.org/namespaces/inkscape"
   version="1.1"
   id="Capa_1"
   x="0px"
   y="0px"
   width="511.626px"
   height="511.626px"
   viewBox="0 0 511.626 511.626"
   style="enable-background:new 0 0 511.626 511.626;"
   xml:space="preserve"
   sodipodi:docname="heart_yes.svg"
   inkscape:version="1.0.1 (3bc2e813f5, 2020-09-07)"><metadata
   id="metadata41"><rdf:RDF><cc:Work
       rdf:about=""><dc:format>image/svg+xml</dc:format><dc:type
         rdf:resource="http://purl.org/dc/dcmitype/StillImage" /><dc:title></dc:title></cc:Work></rdf:RDF></metadata><defs
   id="defs39" /><sodipodi:namedview
   pagecolor="#ffffff"
   bordercolor="#666666"
   borderopacity="1"
   objecttolerance="10"
   gridtolerance="10"
   guidetolerance="10"
   inkscape:pageopacity="0"
   inkscape:pageshadow="2"
   inkscape:window-width="1920"
   inkscape:window-height="1012"
   id="namedview37"
   showgrid="false"
   inkscape:zoom="1.0158269"
   inkscape:cx="201.03926"
   inkscape:cy="226.15574"
   inkscape:window-x="-8"
   inkscape:window-y="1"
   inkscape:window-maximized="1"
   inkscape:current-layer="Capa_1" />
<g
   id="g4">
	<path
   d="M475.366,71.949c-24.175-23.606-57.575-35.404-100.215-35.404c-11.8,0-23.843,2.046-36.117,6.136   c-12.279,4.093-23.702,9.615-34.256,16.562c-10.568,6.945-19.65,13.467-27.269,19.556c-7.61,6.091-14.845,12.564-21.696,19.414   c-6.854-6.85-14.087-13.323-21.698-19.414c-7.616-6.089-16.702-12.607-27.268-19.556c-10.564-6.95-21.985-12.468-34.261-16.562   c-12.275-4.089-24.316-6.136-36.116-6.136c-42.637,0-76.039,11.801-100.211,35.404C12.087,95.55,0,128.286,0,170.16   c0,12.753,2.24,25.891,6.711,39.398c4.471,13.514,9.566,25.031,15.275,34.546c5.708,9.514,12.181,18.792,19.414,27.834   c7.233,9.041,12.519,15.272,15.846,18.698c3.33,3.426,5.948,5.903,7.851,7.427L243.25,469.938   c3.427,3.426,7.614,5.144,12.562,5.144s9.138-1.718,12.563-5.144l177.87-171.31c43.588-43.58,65.38-86.406,65.38-128.472   C511.626,128.279,499.54,95.546,475.366,71.949z M421.405,271.795L255.813,431.391L89.938,271.507   C54.344,235.922,36.55,202.133,36.55,170.156c0-15.415,2.046-29.026,6.136-40.824c4.093-11.8,9.327-21.177,15.703-28.124   c6.377-6.949,14.132-12.607,23.268-16.988c9.141-4.377,18.086-7.328,26.84-8.85c8.754-1.52,18.079-2.281,27.978-2.281   c9.896,0,20.557,2.424,31.977,7.279c11.418,4.853,21.934,10.944,31.545,18.271c9.613,7.332,17.845,14.183,24.7,20.557   c6.851,6.38,12.559,12.229,17.128,17.559c3.424,4.189,8.091,6.283,13.989,6.283c5.9,0,10.562-2.094,13.99-6.283   c4.568-5.33,10.28-11.182,17.131-17.559c6.852-6.374,15.085-13.222,24.694-20.557c9.613-7.327,20.129-13.418,31.553-18.271   c11.416-4.854,22.08-7.279,31.977-7.279s19.219,0.761,27.977,2.281c8.757,1.521,17.702,4.473,26.84,8.85   c9.137,4.38,16.892,10.042,23.267,16.988c6.376,6.947,11.612,16.324,15.705,28.124c4.086,11.798,6.132,25.409,6.132,40.824   C475.078,202.133,457.19,236.016,421.405,271.795z"
   id="path2" />
</g>
<g
   id="g6">
</g>
<g
   id="g8">
</g>
<g
   id="g10">
</g>
<g
   id="g12">
</g>
<g
   id="g14">
</g>
<g
   id="g16">
</g>
<g
   id="g18">
</g>
<g
   id="g20">
</g>
<g
   id="g22">
</g>
<g
   id="g24">
</g>
<g
   id="g26">
</g>
<g
   id="g28">
</g>
<g
   id="g30">
</g>
<g
   id="g32">
</g>
<g
   id="g34">
</g>
<path
   style="opacity:0.545161;fill:#ff0000;stroke-width:0.69609"
   d="M 173.01337,350.93646 C 127.45496,307.01038 86.998605,267.71799 83.110369,263.62006 59.153447,238.3711 43.66666,211.86083 38.668918,187.54522 35.450541,171.8868 37.143583,147.44244 42.598189,130.81391 44.769295,124.19522 49.636731,114.02934 53.19451,108.68297 56.852875,103.18545 65.492124,94.624148 71.385465,90.656148 81.368275,83.9347 97.10254,77.745464 110.01845,75.459464 c 10.0383,-1.776689 31.68705,-2.200593 38.79812,-0.759705 8.61563,1.745748 15.66156,4.239554 25.75068,9.11407 18.66551,9.018171 36.06646,22.215561 57.45624,43.576481 14.98501,14.96478 16.46121,15.95321 23.82577,15.95321 6.44746,0 9.6165,-1.62835 15.90357,-8.17174 14.58155,-15.17603 26.38234,-25.79212 40.16226,-36.130323 14.3425,-10.760273 31.05817,-19.244592 46.03164,-23.364135 5.24631,-1.443379 7.2499,-1.592219 21.11043,-1.568224 17.75222,0.03073 24.59988,0.983407 37.31896,5.19197 33.5921,11.11515 51.03205,32.700332 57.08661,70.655312 1.37923,8.6461 1.20992,29.36496 -0.29863,36.54471 -5.43135,25.84987 -21.26782,52.87055 -46.05942,78.58805 -3.83802,3.98135 -41.43467,40.44256 -83.5481,81.0249 -42.11343,40.58235 -79.07635,76.23902 -82.1398,79.23706 l -5.56992,5.45097 z"
   id="path866" /><path
   style="opacity:0.545161;fill:#ff0000;stroke-width:0.69609"
   d="M 173.01337,350.93646 C 127.45496,307.01038 86.998605,267.71799 83.110369,263.62006 59.153447,238.3711 43.66666,211.86083 38.668918,187.54522 35.450541,171.8868 37.143583,147.44244 42.598189,130.81391 44.769295,124.19522 49.636731,114.02934 53.19451,108.68297 56.852875,103.18545 65.492124,94.624148 71.385465,90.656148 81.368275,83.9347 97.10254,77.745464 110.01845,75.459464 c 10.0383,-1.776689 31.68705,-2.200593 38.79812,-0.759705 8.61563,1.745748 15.66156,4.239554 25.75068,9.11407 18.66551,9.018171 36.06646,22.215561 57.45624,43.576481 14.98501,14.96478 16.46121,15.95321 23.82577,15.95321 6.44746,0 9.6165,-1.62835 15.90357,-8.17174 14.58155,-15.17603 26.38234,-25.79212 40.16226,-36.130323 14.3425,-10.760273 31.05817,-19.244592 46.03164,-23.364135 5.24631,-1.443379 7.2499,-1.592219 21.11043,-1.568224 17.75222,0.03073 24.59988,0.983407 37.31896,5.19197 33.5921,11.11515 51.03205,32.700332 57.08661,70.655312 1.37923,8.6461 1.20992,29.36496 -0.29863,36.54471 -5.43135,25.84987 -21.26782,52.87055 -46.05942,78.58805 -3.83802,3.98135 -41.43467,40.44256 -83.5481,81.0249 -42.11343,40.58235 -79.07635,76.23902 -82.1398,79.23706 l -5.56992,5.45097 z"
   id="path868" /></svg>
